<?xml version="1.0" encoding="UTF-8" standalone="no"?>
<!DOCTYPE svg PUBLIC "-//W3C//DTD SVG 1.1//EN" "http://www.w3.org/Graphics/SVG/1.1/DTD/svg11.dtd">
<svg width="100%" height="100%" viewBox="0 0 155 109" version="1.1" xmlns="http://www.w3.org/2000/svg" xmlns:xlink="http://www.w3.org/1999/xlink" xml:space="preserve" xmlns:serif="http://www.serif.com/" style="fill-rule:evenodd;clip-rule:evenodd;stroke-linecap:round;stroke-linejoin:round;stroke-miterlimit:1.5;">
    <g transform="matrix(1,0,0,1,-0.0162674,-0.24)">
        <g transform="matrix(1,0,0,1,-823.708,-1988.86)">
            <g transform="matrix(1,0,0,1,525.322,-152.495)">
                <path d="M375.684,2241.86L306.737,2241.89L306.737,2149.93L445.001,2149.93L445.001,2201.55" style="fill:none;stroke:black;stroke-width:16.67px;"/>
            </g>
        </g>
        <g transform="matrix(1,0,0,1,-823.708,-1988.86)">
            <g transform="matrix(1,0,0,1,824.425,1990.84)">
                <path d="M32.535,36.366L121.032,36.366" style="fill:none;stroke:black;stroke-width:16.7px;"/>
            </g>
        </g>
        <g transform="matrix(1,0,0,1,-823.708,-1988.86)">
            <g transform="matrix(0.676113,0,0,1,834.962,2023.26)">
                <path d="M32.535,36.366L121.032,36.366" style="fill:none;stroke:black;stroke-width:19.57px;"/>
            </g>
        </g>
    </g>
</svg>
