<?xml version="1.0" encoding="UTF-8" standalone="no"?><!DOCTYPE svg PUBLIC "-//W3C//DTD SVG 1.1//EN" "http://www.w3.org/Graphics/SVG/1.1/DTD/svg11.dtd"><svg width="100%" height="100%" viewBox="0 0 178 201" version="1.1" xmlns="http://www.w3.org/2000/svg" xmlns:xlink="http://www.w3.org/1999/xlink" xml:space="preserve" xmlns:serif="http://www.serif.com/" style="fill-rule:evenodd;clip-rule:evenodd;stroke-linejoin:round;stroke-miterlimit:2;"><g><path d="M91.407,32.699l55.107,31.816c1.489,0.86 2.407,2.449 2.407,4.169l-0,63.632c-0,1.72 -0.918,3.309 -2.407,4.169l-55.107,31.816c-1.489,0.86 -3.325,0.86 -4.814,-0l-55.107,-31.816c-1.489,-0.86 -2.407,-2.449 -2.407,-4.169l0,-63.632c0,-1.72 0.918,-3.309 2.407,-4.169l55.107,-31.816c1.489,-0.86 3.325,-0.86 4.814,0Zm-2.407,9.728l-50.293,29.036l-0,58.074l50.293,29.036l50.293,-29.036l0,-58.074l-50.293,-29.036Z"/><path d="M91.407,54.77l35.993,20.78c1.49,0.86 2.407,2.449 2.407,4.169l0,41.562c0,1.72 -0.917,3.309 -2.407,4.169l-35.993,20.78c-1.489,0.86 -3.325,0.86 -4.814,0l-35.993,-20.78c-1.49,-0.86 -2.407,-2.449 -2.407,-4.169l-0,-41.562c-0,-1.72 0.917,-3.309 2.407,-4.169l35.993,-20.78c1.489,-0.86 3.325,-0.86 4.814,-0Zm-2.407,9.727l-31.179,18.002l-0,36.002l31.179,18.002l31.179,-18.002l0,-36.002l-31.179,-18.002Z"/></g></svg>