<?xml version="1.0" encoding="UTF-8" standalone="no"?>
<!DOCTYPE svg PUBLIC "-//W3C//DTD SVG 1.1//EN" "http://www.w3.org/Graphics/SVG/1.1/DTD/svg11.dtd">
<svg width="100%" height="100%" viewBox="0 0 179 177" version="1.1" xmlns="http://www.w3.org/2000/svg" xmlns:xlink="http://www.w3.org/1999/xlink" xml:space="preserve" xmlns:serif="http://www.serif.com/" style="fill-rule:evenodd;clip-rule:evenodd;stroke-linecap:round;stroke-linejoin:round;stroke-miterlimit:1.5;">
    <g transform="matrix(1,0,0,1,-362.27,-2148.6)">
        <g transform="matrix(0.957055,0,0,0.957055,-2.60906,74.7697)">
            <g transform="matrix(1.30435,0,0,1.30435,-109.934,-663.908)">
                <circle cx="447.962" cy="2241.73" r="27.819" style="fill:none;stroke:white;stroke-width:10.01px;"/>
            </g>
            <g transform="matrix(0.767661,0,0,0.767661,131.967,541.555)">
                <path d="M460.203,2129.52C450.792,2128.3 441.263,2128.3 431.852,2129.52L428.811,2161.64C422.17,2163.13 415.749,2165.47 409.708,2168.6L386.728,2145.94C378.733,2151.05 371.433,2157.18 365.009,2164.16L383.331,2190.73C379.198,2196.14 375.781,2202.05 373.166,2208.34L340.999,2205.75C338.161,2214.81 336.507,2224.19 336.076,2233.67L367.187,2242.24C367.496,2249.04 368.682,2255.77 370.717,2262.27L344.415,2280.96C348.062,2289.72 352.827,2297.98 358.591,2305.52L387.933,2292.09C392.539,2297.1 397.774,2301.49 403.507,2305.15L395.376,2336.38C403.801,2340.75 412.756,2344.01 422.018,2346.08L435.863,2316.93C442.611,2317.81 449.444,2317.81 456.192,2316.93L470.037,2346.08C479.299,2344.01 488.254,2340.75 496.679,2336.38L488.548,2305.15C494.281,2301.49 499.516,2297.1 504.122,2292.09L533.465,2305.52C539.229,2297.98 543.993,2289.72 547.64,2280.96L521.338,2262.27C523.373,2255.77 524.56,2249.04 524.868,2242.24L555.979,2233.67C555.548,2224.19 553.894,2214.81 551.056,2205.75L518.889,2208.34C516.274,2202.05 512.857,2196.14 508.724,2190.73L527.046,2164.16C520.622,2157.18 513.322,2151.05 505.327,2145.94L482.347,2168.6C476.306,2165.47 469.885,2163.13 463.244,2161.64L460.203,2129.52Z" style="fill:none;stroke:white;stroke-width:22.69px;"/>
            </g>
        </g>
    </g>
</svg>
