<?xml version="1.0" encoding="UTF-8" standalone="no"?><!DOCTYPE svg PUBLIC "-//W3C//DTD SVG 1.1//EN" "http://www.w3.org/Graphics/SVG/1.1/DTD/svg11.dtd"><svg width="100%" height="100%" viewBox="0 0 178 201" version="1.1" xmlns="http://www.w3.org/2000/svg" xmlns:xlink="http://www.w3.org/1999/xlink" xml:space="preserve" xmlns:serif="http://www.serif.com/" style="fill-rule:evenodd;clip-rule:evenodd;stroke-linejoin:round;stroke-miterlimit:2;"><g><path d="M104.341,112.484c1.369,-2.277 4.329,-3.014 6.606,-1.646c2.277,1.369 3.015,4.329 1.646,6.606l-27.975,46.549c-0.787,1.31 -2.15,2.169 -3.672,2.313c-1.523,0.143 -3.022,-0.444 -4.042,-1.584l-54.574,-61.013c-1.682,-1.879 -1.627,-4.738 0.124,-6.552c1.752,-1.815 4.607,-1.97 6.545,-0.356l47.757,39.78l74.375,-122.487c1.379,-2.271 4.342,-2.995 6.613,-1.616c2.271,1.379 2.995,4.342 1.616,6.613l-77.275,127.264c-0.728,1.198 -1.941,2.019 -3.323,2.25c-1.382,0.23 -2.796,-0.153 -3.873,-1.05l-1.658,-1.381c-0,0 6.498,7.265 6.498,7.265l24.612,-40.955Z"/></g></svg>