<?xml version="1.0" encoding="UTF-8" standalone="no"?>
<!DOCTYPE svg PUBLIC "-//W3C//DTD SVG 1.1//EN" "http://www.w3.org/Graphics/SVG/1.1/DTD/svg11.dtd">
<svg width="100%" height="100%" viewBox="0 0 432 424" version="1.1" xmlns="http://www.w3.org/2000/svg" xmlns:xlink="http://www.w3.org/1999/xlink" xml:space="preserve" xmlns:serif="http://www.serif.com/" style="fill-rule:evenodd;clip-rule:evenodd;stroke-linecap:round;stroke-linejoin:round;stroke-miterlimit:1.5;">
    <g transform="matrix(1,0,0,1,-1700.67,-588.679)">
        <g transform="matrix(1,0,0,1,672.246,-475.432)">
            <path d="M1028.92,1064.61L1239.97,1322.39L1239.97,1486.71L1028.92,1064.61Z" style="fill:white;stroke:white;stroke-width:1px;"/>
            <g transform="matrix(2.57728,-0.136222,0.136222,2.57728,-2132.3,-1393.74)">
                <circle cx="1306.88" cy="1109.31" r="5.454" style="fill:white;stroke:white;stroke-width:0.39px;"/>
            </g>
            <g transform="matrix(2.57728,-0.136222,0.136222,2.57728,-2166.16,-1413.99)">
                <circle cx="1305.33" cy="1114.17" r="5.454" style="fill:white;stroke:white;stroke-width:0.39px;"/>
            </g>
            <g transform="matrix(1.86749,-0.0987062,0.0987062,1.86749,-1205.64,-697.398)">
                <circle cx="1305.33" cy="1114.17" r="5.454" style="fill:white;stroke:white;stroke-width:0.53px;"/>
            </g>
            <g transform="matrix(2.57728,-0.136222,0.136222,2.57728,-2123.53,-1498.92)">
                <circle cx="1305.33" cy="1114.17" r="5.454" style="fill:white;stroke:white;stroke-width:0.39px;"/>
            </g>
            <g transform="matrix(2.57728,-0.136222,0.136222,2.57728,-2198.45,-1449.34)">
                <circle cx="1296.59" cy="1114.01" r="5.454" style="fill:white;stroke:white;stroke-width:0.39px;"/>
            </g>
            <g transform="matrix(3.28096,-0.173415,0.173415,3.28096,-3133.56,-2103.33)">
                <circle cx="1305.33" cy="1114.17" r="5.454" style="fill:white;stroke:white;stroke-width:0.3px;"/>
            </g>
            <g transform="matrix(3.28096,-0.173415,0.173415,3.28096,-3161.47,-2053.93)">
                <circle cx="1305.33" cy="1114.17" r="5.454" style="fill:white;stroke:white;stroke-width:0.3px;"/>
            </g>
            <g transform="matrix(1.19781,-0.0633104,0.0633104,1.19781,-332.808,165.795)">
                <circle cx="1305.33" cy="1114.17" r="5.454" style="fill:white;stroke:white;stroke-width:0.83px;"/>
            </g>
            <g transform="matrix(1.19781,-0.0633104,0.0633104,1.19781,-404.783,149.466)">
                <circle cx="1327.69" cy="1066.07" r="5.454" style="fill:white;stroke:white;stroke-width:0.83px;"/>
            </g>
            <g transform="matrix(2.13094,-0.112631,0.112631,2.13094,-1637.63,-858.615)">
                <circle cx="1309.03" cy="1120.12" r="5.454" style="fill:white;stroke:white;stroke-width:0.47px;"/>
            </g>
            <g transform="matrix(2.13094,-0.112631,0.112631,2.13094,-1651.88,-768.438)">
                <circle cx="1305.33" cy="1114.17" r="5.454" style="fill:white;stroke:white;stroke-width:0.47px;"/>
            </g>
            <g transform="matrix(5.00954,-0.264779,0.264779,5.00954,-5553.65,-3920.51)">
                <circle cx="1305.33" cy="1114.17" r="5.454" style="fill:white;stroke:white;stroke-width:0.2px;"/>
            </g>
            <g transform="matrix(1.19781,-0.0633104,0.0633104,1.19781,-323.599,29.7658)">
                <circle cx="1305.33" cy="1114.17" r="5.454" style="fill:white;stroke:white;stroke-width:0.83px;"/>
            </g>
            <g transform="matrix(1.19781,-0.0633104,0.0633104,1.19781,-269.781,98.2068)">
                <circle cx="1305.33" cy="1114.17" r="5.454" style="fill:white;stroke:white;stroke-width:0.83px;"/>
            </g>
            <g transform="matrix(1.19781,-0.0633104,0.0633104,1.19781,-181.66,-112.304)">
                <circle cx="1305.33" cy="1114.17" r="5.454" style="fill:white;stroke:white;stroke-width:0.83px;"/>
            </g>
            <g transform="matrix(1.19781,-0.0633104,0.0633104,1.19781,-208.722,37.6834)">
                <circle cx="1310.35" cy="1095.07" r="5.454" style="fill:white;stroke:white;stroke-width:0.83px;"/>
            </g>
            <g transform="matrix(2.13094,-0.112631,0.112631,2.13094,-1554.71,-851.1)">
                <circle cx="1305.33" cy="1114.17" r="5.454" style="fill:white;stroke:white;stroke-width:0.47px;"/>
            </g>
            <g transform="matrix(2.13094,-0.112631,0.112631,2.13094,-1515.16,-894.356)">
                <circle cx="1305.33" cy="1114.17" r="5.454" style="fill:white;stroke:white;stroke-width:0.47px;"/>
            </g>
            <g transform="matrix(2.13094,-0.112631,0.112631,2.13094,-1546.98,-1062.44)">
                <circle cx="1305.33" cy="1114.17" r="5.454" style="fill:white;stroke:white;stroke-width:0.47px;"/>
            </g>
            <g transform="matrix(1.19781,-0.0633104,0.0633104,1.19781,-255.521,-7.35353)">
                <circle cx="1305.33" cy="1114.17" r="5.454" style="fill:white;stroke:white;stroke-width:0.83px;"/>
            </g>
            <g transform="matrix(1.19781,-0.0633104,0.0633104,1.19781,-207.852,-105.925)">
                <circle cx="1300.83" cy="1100.3" r="5.454" style="fill:white;stroke:white;stroke-width:0.83px;"/>
            </g>
            <g transform="matrix(1.70691,-0.0902185,0.0902185,1.70691,-866.583,-581.555)">
                <circle cx="1291.19" cy="1106.92" r="5.454" style="fill:white;stroke:white;stroke-width:0.59px;"/>
            </g>
            <g transform="matrix(1.19781,-0.0633104,0.0633104,1.19781,-282.226,-44.1538)">
                <circle cx="1305.33" cy="1114.17" r="5.454" style="fill:white;stroke:white;stroke-width:0.83px;"/>
            </g>
            <g transform="matrix(2.09068,-0.110503,0.110503,2.09068,-1422.73,-933.48)">
                <circle cx="1298.38" cy="1110.07" r="5.454" style="fill:white;stroke:white;stroke-width:0.48px;"/>
            </g>
            <g transform="matrix(0.998606,-0.0527813,0.0527813,0.998606,18.0972,207.253)">
                <path d="M1309.64,1149.87L1340.72,1107.62" style="fill:none;stroke:white;stroke-width:2.5px;"/>
            </g>
            <g transform="matrix(0.757039,-0.425592,0.649041,0.577047,-320.445,1184.4)">
                <path d="M1341.99,1132.73L1350.25,1098.97" style="fill:none;stroke:white;stroke-width:2.5px;"/>
            </g>
            <g transform="matrix(0.600866,0.627054,-0.397043,0.772395,1053.12,-420.899)">
                <path d="M1313.5,1140.8L1347.56,1092.43" style="fill:none;stroke:white;stroke-width:2.5px;"/>
            </g>
            <g transform="matrix(0.981762,0.190112,-0.190112,0.981762,265.96,-53.997)">
                <path d="M1316.99,1154.49L1356.13,1103.04" style="fill:none;stroke:white;stroke-width:2.5px;"/>
            </g>
            <g transform="matrix(0.817147,-0.576429,0.576429,0.817147,-400.616,1148.85)">
                <path d="M1316.99,1154.49L1355.28,1116.21" style="fill:none;stroke:white;stroke-width:2.5px;"/>
            </g>
            <g transform="matrix(0.513462,0.858112,-0.858112,0.513462,1602.25,-408.037)">
                <path d="M1316.99,1154.49L1355.28,1116.21" style="fill:none;stroke:white;stroke-width:2.5px;"/>
            </g>
            <g transform="matrix(-0.952836,0.303487,-0.303487,-0.952836,2945.97,2029.15)">
                <path d="M1316.99,1154.49L1355.28,1116.21" style="fill:none;stroke:white;stroke-width:2.5px;"/>
            </g>
            <g transform="matrix(-0.332953,0.942944,-0.942944,-0.332953,2815.66,465.425)">
                <path d="M1316.99,1154.49L1355.28,1116.21" style="fill:none;stroke:white;stroke-width:2.5px;"/>
            </g>
            <g transform="matrix(-0.843917,0.536473,-0.536473,-0.843917,3011.22,1584.31)">
                <path d="M1316.99,1154.49L1354.65,1101.27" style="fill:none;stroke:white;stroke-width:2.5px;"/>
            </g>
            <g transform="matrix(-0.843917,0.536473,-0.536473,-0.843917,3011.22,1584.31)">
                <path d="M1316.99,1154.49L1353.39,1147.11" style="fill:none;stroke:white;stroke-width:2.5px;"/>
            </g>
            <g transform="matrix(-0.901286,0.433224,-0.433224,-0.901286,3006.73,1836.7)">
                <path d="M1316.99,1154.49L1355.28,1116.21" style="fill:none;stroke:white;stroke-width:2.5px;"/>
            </g>
            <g transform="matrix(-0.997863,-0.0653358,0.0653358,-0.997863,2539.14,2656.94)">
                <path d="M1316.99,1154.49L1355.28,1116.21" style="fill:none;stroke:white;stroke-width:2.5px;"/>
            </g>
            <g transform="matrix(-0.328855,0.996619,-0.962112,-0.419208,2773.13,573.766)">
                <path d="M1256.12,1150.62L1355.28,1116.21" style="fill:none;stroke:white;stroke-width:2.5px;"/>
            </g>
            <g transform="matrix(-0.967698,-0.11091,0.0584644,-0.972277,2476.12,2637.02)">
                <path d="M1307.46,1142.96L1334.55,1179.29" style="fill:none;stroke:white;stroke-width:2.5px;"/>
            </g>
            <g transform="matrix(-0.845054,1.05825,-0.558214,-1.23385,3026.12,1400.64)">
                <path d="M1314.73,1142.61L1355.28,1116.21" style="fill:none;stroke:white;stroke-width:2.5px;"/>
            </g>
            <g transform="matrix(-0.221626,0.975132,-0.975132,-0.221626,2688.85,342.644)">
                <path d="M1327.06,1143.44L1355.28,1116.21" style="fill:none;stroke:white;stroke-width:2.5px;"/>
            </g>
            <g transform="matrix(0.981938,-0.189202,0.189202,0.981938,-79.8118,363.994)">
                <path d="M1303.75,1143.99L1333.04,1100.6" style="fill:none;stroke:white;stroke-width:2.5px;"/>
            </g>
            <g transform="matrix(0.981938,-0.189202,0.189202,0.981938,-116.291,307.019)">
                <path d="M1316.99,1154.49L1352.21,1098.98" style="fill:none;stroke:white;stroke-width:2.5px;"/>
            </g>
            <g transform="matrix(0.998606,-0.0527813,0.0527813,0.998606,-60.5521,165.144)">
                <path d="M1294.43,1154.08L1355.28,1116.21" style="fill:none;stroke:white;stroke-width:2.5px;"/>
            </g>
            <g transform="matrix(1.20761,0.350633,-0.769991,0.994169,651.761,-332.925)">
                <path d="M1316.99,1154.49L1341.05,1113.37" style="fill:none;stroke:white;stroke-width:2.5px;"/>
            </g>
            <g transform="matrix(1.25279,0.108494,-0.561414,1.1252,276.71,-121.915)">
                <path d="M1316.99,1154.49L1355.28,1116.21" style="fill:none;stroke:white;stroke-width:2.5px;"/>
            </g>
            <g transform="matrix(0.589918,0.766278,-0.723549,0.641608,1437.14,-504.23)">
                <path d="M1316.99,1154.49L1338.91,1123.58" style="fill:none;stroke:white;stroke-width:2.5px;"/>
            </g>
            <g transform="matrix(0.965154,-0.0605226,0.127269,0.958638,-72.1585,257.219)">
                <path d="M1316.99,1154.49L1355.28,1116.21" style="fill:none;stroke:white;stroke-width:2.5px;"/>
            </g>
            <g transform="matrix(0.664731,0.550783,-0.290345,0.812975,801.472,-409.14)">
                <path d="M1316.99,1154.49L1355.28,1116.21" style="fill:none;stroke:white;stroke-width:2.5px;"/>
            </g>
            <g transform="matrix(-0.853725,0.454244,-0.512322,-0.82019,3107.82,1544.39)">
                <path d="M1316.99,1154.49L1355.28,1116.21" style="fill:none;stroke:white;stroke-width:2.5px;"/>
            </g>
            <g transform="matrix(0.817607,-0.48737,0.569559,0.762635,-391.898,1018.57)">
                <path d="M1316.99,1154.49L1355.28,1116.21" style="fill:none;stroke:white;stroke-width:2.5px;"/>
            </g>
            <g transform="matrix(0.702896,0.514873,-0.26528,0.829929,735.994,-429.21)">
                <path d="M1316.99,1154.49L1355.28,1116.21" style="fill:none;stroke:white;stroke-width:2.5px;"/>
            </g>
            <g transform="matrix(-0.127416,1.07913,-1.04691,-0.291118,2771.1,113.837)">
                <path d="M1316.99,1154.49L1352.01,1130.92" style="fill:none;stroke:white;stroke-width:2.5px;"/>
            </g>
            <g transform="matrix(0.759645,0.776983,-0.884118,0.631743,1423.04,-555.8)">
                <path d="M1316.99,1154.49L1333.43,1125.48" style="fill:none;stroke:white;stroke-width:2.5px;"/>
            </g>
            <g transform="matrix(-0.163907,1.0742,-1.03644,-0.326423,2839.27,108.34)">
                <path d="M1304.24,1162.56L1352.34,1140.59" style="fill:none;stroke:white;stroke-width:2.5px;"/>
            </g>
        </g>
    </g>
</svg>
